<svg width="16" height="17" viewBox="0 0 16 17" fill="none" xmlns="http://www.w3.org/2000/svg">
<path d="M8.00004 15.1668C4.31814 15.1668 1.33337 12.1821 1.33337 8.50016C1.33337 4.81826 4.31814 1.8335 8.00004 1.8335C11.6819 1.8335 14.6667 4.81826 14.6667 8.50016C14.6627 12.1804 11.6803 15.1628 8.00004 15.1668ZM2.66671 8.61483C2.69825 11.549 5.09411 13.9065 8.0284 13.8908C10.9627 13.875 13.3331 11.4918 13.3331 8.55749C13.3331 5.62317 10.9627 3.24001 8.0284 3.22416C5.09411 3.20847 2.69825 5.566 2.66671 8.50016V8.61483ZM8.66671 11.8335H7.33337V9.16683H4.66671V7.8335H7.33337V5.16683H8.66671V7.8335H11.3334V9.16683H8.66671V11.8335Z" fill="#646464"/>
</svg>
